<svg xmlns="http://www.w3.org/2000/svg" width="17.77" height="12.181" viewBox="0 0 17.77 12.181">
  <g transform="translate(-205.115 -734.409)">
    <path id="arrow" d="M16.77,5.59h0L10.273,0l6.5,5.59-6.5,5.59Z" transform="translate(205.615 734.909)" fill="#fff"></path>
    <path id="arrow_-_Outline" data-name="arrow - Outline" d="M10.273-.5a.5.5,0,0,1,.326.121L17.09,5.205l.034.031a.5.5,0,0,1,.1.138q.009.019.016.038h0a.5.5,0,0,1,.028.111h0v0h0a.5.5,0,0,1,0,.062h0a.5.5,0,0,1,0,.062h0a.5.5,0,0,1-.028.111h0q-.007.019-.016.038a.5.5,0,0,1-.1.139l-.034.031L10.6,11.56a.5.5,0,1,1-.652-.758L15.423,6.09H0a.5.5,0,0,1,0-1H15.423L9.947.379A.5.5,0,0,1,9.773,0a.5.5,0,0,1,.121-.326A.5.5,0,0,1,10.273-.5Z" transform="translate(205.615 734.909)" fill="#f0725c"></path>
  </g>
</svg>