<svg xmlns="http://www.w3.org/2000/svg" viewBox="0 0 1750 560" width="1750" height="560" preserveAspectRatio="xMinYMin meet" style="width: 100%; height: 100%; transform: translate3d(0px, 0px, 0px);"><defs><clipPath id="__lottie_element_3"><rect width="1750" height="560" x="0" y="0"></rect></clipPath></defs><g clip-path="url(#__lottie_element_3)"><g transform="matrix(1.1200000047683716,0,0,1.1200000047683716,355.7200012207031,282)" opacity="1" style="display: none;"><g opacity="1" transform="matrix(1,0,0,1,406.2569885253906,87.06400299072266)"><path fill="rgb(25,49,90)" fill-opacity="1" d=" M390.4519958496094,-85.76300048828125 C210.49400329589844,-69.2979965209961 31.88800048828125,-40.430999755859375 -144.09500122070312,0.6309999823570251 C-228.17599487304688,19.759000778198242 -311.2049865722656,41.724998474121094 -393.2900085449219,67.58000183105469 C-406.0069885253906,71.5739974975586 -396.5480041503906,86.81400299072266 -385.8280029296875,83.45099639892578 C-150.61000061035156,9.354000091552734 94.59100341796875,-36.470001220703125 339.37298583984375,-63.69200134277344 C357.135009765625,-65.68900299072266 374.7919921875,-67.58000183105469 392.65899658203125,-69.15699768066406 C406.0069885253906,-70.41799926757812 402.4339904785156,-86.81400299072266 390.4519958496094,-85.76300048828125z"></path></g></g><g transform="matrix(3.3713204860687256,-0.7783306837081909,0.7783306837081909,3.3713204860687256,729.512939453125,226.75167846679688)" opacity="1" style="display: block;"><g opacity="1" transform="matrix(1,0,0,1,15.343999862670898,16.74799919128418)"><path fill="rgb(24,49,90)" fill-opacity="1" d=" M-2.378999948501587,14.314000129699707 C-3.003000020980835,15.87399959564209 -3.940000057220459,16.496999740600586 -4.953000068664551,16.496999740600586 C-6.591000080108643,16.496999740600586 -7.839000225067139,15.484000205993652 -7.839000225067139,14.157999992370605 C-7.839000225067139,13.456000328063965 -7.605999946594238,12.597999572753906 -7.13700008392334,11.428000450134277 C-7.13700008392334,11.428000450134277 -3.5490000247955322,2.4579999446868896 -3.5490000247955322,2.4579999446868896 C-3.5490000247955322,2.4579999446868896 -11.895999908447266,2.4579999446868896 -11.895999908447266,2.4579999446868896 C-14.234999656677246,2.4579999446868896 -15.093999862670898,1.2869999408721924 -15.093999862670898,-0.35199999809265137 C-15.093999862670898,-2.1449999809265137 -14.392000198364258,-3.0810000896453857 -10.960000038146973,-3.0810000896453857 C-8.774999618530273,-3.0810000896453857 -5.109000205993652,-3.003000020980835 -1.3650000095367432,-3.003000020980835 C-1.3650000095367432,-3.003000020980835 3.0810000896453857,-14.00100040435791 3.0810000896453857,-14.00100040435791 C3.7829999923706055,-15.795000076293945 4.953000068664551,-16.496999740600586 6.123000144958496,-16.496999740600586 C7.293000221252441,-16.496999740600586 8.463000297546387,-15.873000144958496 8.463000297546387,-14.390999794006348 C8.463000297546387,-13.689000129699707 8.229000091552734,-12.90999984741211 7.994999885559082,-12.208000183105469 C7.761000156402588,-11.505999565124512 6.2789998054504395,-7.5279998779296875 4.4070000648498535,-2.8480000495910645 C4.4070000648498535,-2.8480000495910645 11.583000183105469,-2.8480000495910645 11.583000183105469,-2.8480000495910645 C14.704000473022461,-2.8480000495910645 15.093999862670898,-1.8320000171661377 15.093999862670898,-1.0529999732971191 C15.093999862670898,0.5849999785423279 14.312999725341797,2.378000020980835 11.73900032043457,2.378000020980835 C10.880999565124512,2.4570000171661377 6.980999946594238,2.4579999446868896 2.3010001182556152,2.4579999446868896 C2.3010001182556152,2.4579999446868896 -2.378999948501587,14.314000129699707 -2.378999948501587,14.314000129699707z"></path></g></g><g transform="matrix(5.239999771118164,0,0,5.239999771118164,1163.471435546875,9.463882446289062)" opacity="1" style="display: block;"><g opacity="1" transform="matrix(1,0,0,1,50.314998626708984,27.488000869750977)"><path fill="rgb(25,49,90)" fill-opacity="1" d=" M45.154998779296875,-2.5769999027252197 C42.16899871826172,4.058000087738037 36.72800064086914,11.069999694824219 29.80500030517578,13.967000007629395 C27.149999618530273,15.072999954223633 22.815000534057617,16.179000854492188 20.493000030517578,13.812000274658203 C20.12700080871582,13.425000190734863 19.820999145507812,12.986000061035156 19.586000442504883,12.508000373840332 C19.586000442504883,12.508000373840332 20.29400062561035,11.689000129699707 20.29400062561035,11.689000129699707 C27.43400001525879,3.677999973297119 32.50699996948242,-5.958000183105469 35.069000244140625,-16.378999710083008 C35.62200164794922,-18.98900032043457 36.30699920654297,-22.72599983215332 34.361000061035156,-24.98200035095215 C32.415000915527344,-27.238000869750977 28.920000076293945,-26.46500015258789 26.77400016784668,-24.805999755859375 C23.996000289916992,-22.194000244140625 21.783000946044922,-19.040000915527344 20.270999908447266,-15.538999557495117 C18.113000869750977,-11.230999946594238 16.45800018310547,-6.689000129699707 15.33899974822998,-2.002000093460083 C14.130999565124512,2.444000005722046 13.994999885559082,7.113999843597412 14.940999984741211,11.62399959564209 C12.343999862670898,14.336999893188477 9.29800033569336,16.579999923706055 5.939000129699707,18.257999420166016 C3.677999973297119,19.552000045776367 1.0829999446868896,20.145999908447266 -1.5149999856948853,19.961999893188477 C2.015000104904175,16.40999984741211 4.599999904632568,12.029000282287598 6.005000114440918,7.2210001945495605 C6.9120001792907715,4.125 7.708000183105469,-0.652999997138977 4.833000183105469,-3.0420000553131104 C1.9570000171661377,-5.431000232696533 -1.8029999732971191,-3.6389999389648438 -4.014999866485596,-1.2280000448226929 C-8.128999710083008,3.4609999656677246 -11.91100025177002,14.055999755859375 -7.730999946594238,19.91699981689453 C-9.45199966430664,21.158000946044922 -11.38599967956543,22.072999954223633 -13.437000274658203,22.617000579833984 C-14.963000297546387,23.03700065612793 -16.7549991607666,23.45599937438965 -17.75,21.95199966430664 C-18.509000778198242,20.275999069213867 -18.74799919128418,18.413000106811523 -18.43600082397461,16.600000381469727 C-18.19700050354004,13.916999816894531 -17.632999420166016,11.272000312805176 -16.7549991607666,8.725000381469727 C-16.7549991607666,8.503999710083008 -12.508000373840332,-3.572999954223633 -10.562000274658203,-9.477999687194824 C-10.562000274658203,-9.477999687194824 2.311000108718872,-11.977999687194824 2.311000108718872,-11.977999687194824 C2.311000108718872,-11.977999687194824 9.432999610900879,-13.194000244140625 9.432999610900879,-13.194000244140625 C12.175999641418457,-13.725000381469727 10.140999794006348,-16.97599983215332 7.86299991607666,-16.534000396728516 C7.86299991607666,-16.534000396728516 -9.168000221252441,-13.32699966430664 -9.168000221252441,-13.32699966430664 C-8.371999740600586,-15.73799991607666 -7.576000213623047,-18.17099952697754 -6.735000133514404,-20.559999465942383 C-5.894999980926514,-22.947999954223633 -10.208000183105469,-23.54599952697754 -10.960000038146973,-21.399999618530273 C-11.991999626159668,-18.451000213623047 -13.010000228881836,-15.442999839782715 -14.01200008392334,-12.37600040435791 C-14.01200008392334,-12.37600040435791 -40.31100082397461,-7.265999794006348 -40.31100082397461,-7.265999794006348 C-40.31100082397461,-7.265999794006348 -47.30099868774414,-5.916999816894531 -47.30099868774414,-5.916999816894531 C-50.064998626708984,-5.386000156402588 -48.03099822998047,-2.134999990463257 -45.75199890136719,-2.5769999027252197 C-45.75199890136719,-2.5769999027252197 -15.295000076293945,-8.482999801635742 -15.295000076293945,-8.482999801635742 C-16.777000427246094,-4.059999942779541 -18.2810001373291,0.36399999260902405 -19.917999267578125,4.788000106811523 C-22.08099937438965,10.633999824523926 -25.823999404907227,18.743000030517578 -20.861000061035156,24.270999908447266 C-19.886999130249023,25.354999542236328 -18.59600067138672,26.058000564575195 -17.174999237060547,26.354000091552734 C-12.928000450134277,27.238000869750977 -8.32800006866455,25.204999923706055 -4.633999824523926,22.57200050354004 C-0.8960000276565552,24.408000946044922 3.8369998931884766,23.280000686645508 7.486999988555908,21.709999084472656 C10.909000396728516,20.13800048828125 14.03600025177002,17.989999771118164 16.732999801635742,15.361000061035156 C17.92300033569336,16.805999755859375 19.54199981689453,17.836000442504883 21.354999542236328,18.30299949645996 C32.415000915527344,21.288999557495117 42.654998779296875,10.451000213623047 47.54399871826172,1.8700000047683716 C48.07899856567383,0.9779999852180481 48.560001373291016,0.05400000140070915 48.98099899291992,-0.8960000276565552 C50.064998626708984,-3.0859999656677246 46.12799835205078,-4.590000152587891 45.154998779296875,-2.5769999027252197z M-4.744999885559082,17.97100067138672 C-5.458000183105469,15.21500015258789 -5.40500020980835,12.317000389099121 -4.590000152587891,9.58899974822998 C-4.590000152587891,9.58899974822998 -4.590000152587891,9.611000061035156 -4.590000152587891,9.611000061035156 C-3.8919999599456787,6.080999851226807 -2.2829999923706055,2.7929999828338623 0.07699999958276749,0.07699999958276749 C0.5860000252723694,-0.45399999618530273 1.4930000305175781,-1.3609999418258667 2.134000062942505,-1.2280000448226929 C2.7760000228881836,-1.0950000286102295 2.6429998874664307,0.2759999930858612 2.7090001106262207,0.984000027179718 C2.640000104904175,5.392000198364258 1.2960000038146973,9.687000274658203 -1.1610000133514404,13.347999572753906 C-2.191999912261963,15.008999824523926 -3.3929998874664307,16.558000564575195 -4.744999885559082,17.97100067138672z M17.948999404907227,8.305000305175781 C18.48200035095215,-0.1599999964237213 20.924999237060547,-8.395000457763672 25.093000411987305,-15.781999588012695 C26.344999313354492,-18.673999786376953 28.2450008392334,-21.23900032043457 30.645000457763672,-23.280000686645508 C30.933000564575195,-23.457000732421875 31.176000595092773,-23.54599952697754 31.30900001525879,-23.479000091552734 C31.44099998474121,-23.413000106811523 31.530000686645508,-22.881999969482422 31.59600067138672,-22.461999893188477 C31.719999313354492,-19.125 31.131999969482422,-15.800000190734863 29.871000289916992,-12.708000183105469 C28.41200065612793,-8.279000282287598 26.538999557495117,-3.999000072479248 24.274999618530273,0.07699999958276749 C22.399999618530273,3.5160000324249268 20.285999298095703,6.820000171661377 17.948999404907227,9.96399974822998 C17.927000045776367,9.352999687194824 17.92799949645996,8.807999610900879 17.948999404907227,8.305000305175781z"></path></g></g><g transform="matrix(5.239999771118164,0,0,5.239999771118164,871.766845703125,9.7738037109375)" opacity="1" style="display: block;"><g opacity="1" transform="matrix(1,0,0,1,66.2249984741211,47.91400146484375)"><path stroke-linecap="butt" stroke-linejoin="miter" fill-opacity="0" stroke-miterlimit="10" stroke="rgb(25,49,90)" stroke-opacity="1" stroke-width="4" d=" M6.760000228881836,3.003999948501587 C3.5759999752044678,10.168000221252441 -2.0329999923706055,14.630999565124512 -5.765999794006348,12.972000122070312 C-9.49899959564209,11.312999725341797 -9.944000244140625,4.159999847412109 -6.760000228881836,-3.003999948501587 C-3.5759999752044678,-10.168999671936035 2.0320000648498535,-14.630999565124512 5.765999794006348,-12.972000122070312 C9.49899959564209,-11.312999725341797 9.944000244140625,-4.159999847412109 6.760000228881836,3.003999948501587z"></path></g><g opacity="1" transform="matrix(1,0,0,1,20.15399932861328,55.83599853515625)"><path stroke-linecap="round" stroke-linejoin="round" fill-opacity="0" stroke="rgb(25,49,90)" stroke-opacity="1" stroke-width="4.125" d=" M9.14900016784668,-38.67100143432617 C9.842000007629395,-40.512001037597656 -1.6430000066757202,-22.400999069213867 -9.842000007629395,40.512001037597656"></path></g><g opacity="1" transform="matrix(1,0,0,1,43.96699905395508,44.45800018310547)"><path stroke-linecap="round" stroke-linejoin="round" fill-opacity="0" stroke="rgb(25,49,90)" stroke-opacity="1" stroke-width="4.125" d=" M8.604999542236328,-34.145999908447266 C4.574999809265137,-24.027000427246094 -2.9709999561309814,-9.901000022888184 -8.604999542236328,34.145999908447266"></path></g><g opacity="1" transform="matrix(1,0,0,1,27.660999298095703,50.72600173950195)"><path stroke-linecap="round" stroke-linejoin="round" fill-opacity="0" stroke="rgb(25,49,90)" stroke-opacity="1" stroke-width="4.125" d=" M22.551000595092773,-5.309000015258789 C22.551000595092773,-5.309000015258789 -22.551000595092773,5.309000015258789 -22.551000595092773,5.309000015258789"></path></g><g opacity="1" transform="matrix(1,0,0,1,76.5199966430664,43.7400016784668)"><path fill="rgb(25,49,90)" fill-opacity="1" d=" M-6.204999923706055,-8.725000381469727 C-5.6570000648498535,-5.956999778747559 -5.066999912261963,-2.5250000953674316 -3.132999897003174,-0.5770000219345093 C-1.9279999732971191,0.4790000021457672 -0.25699999928474426,-0.37299999594688416 1.1480000019073486,-1.0789999961853027 C4.010000228881836,-2.74399995803833 6.465000152587891,-5.159999847412109 8.777999877929688,-7.590000152587891 C8.777999877929688,-7.590000152587891 10.190999984741211,-6.609000205993652 10.190999984741211,-6.609000205993652 C9.01099967956543,-4.453999996185303 7.593999862670898,-2.509000062942505 5.916999816894531,-0.6690000295639038 C-2.7179999351501465,8.723999977111816 -9.647000312805176,2.3259999752044678 -10.190999984741211,-8.388999938964844 C-10.190999984741211,-8.388999938964844 -6.204999923706055,-8.725000381469727 -6.204999923706055,-8.725000381469727z"></path></g></g><g transform="matrix(5.239999771118164,0,0,5.239999771118164,26.673004150390625,43.305877685546875)" opacity="1" style="display: block;"><g opacity="1" transform="matrix(1,0,0,1,79.18699645996094,38.21099853515625)"><path fill="rgb(24,47,88)" fill-opacity="1" d=" M47.34600067138672,-1.9520000219345093 C47.10599899291992,-2.438999891281128 46.9370002746582,-2.9539999961853027 46.84600067138672,-3.4820001125335693 C46.8390007019043,-3.502000093460083 46.827999114990234,-3.5199999809265137 46.82099914550781,-3.5399999618530273 C46.7140007019043,-3.8380000591278076 46.625,-4.142000198364258 46.54800033569336,-4.448999881744385 C46.35599899291992,-4.718999862670898 46.198001861572266,-5.008999824523926 46.066001892089844,-5.314000129699707 C44.40599822998047,-1.4190000295639038 42.39799880981445,2.3519999980926514 39.643001556396484,5.314000129699707 C38.14400100708008,6.922999858856201 32.72100067138672,10.670999526977539 31.905000686645508,6.6579999923706055 C31.554000854492188,4.882999897003174 31.698999404907227,3.0429999828338623 32.32400131225586,1.343999981880188 C32.56700134277344,0.6169999837875366 34.395999908447266,-4.10099983215332 34.792999267578125,-5.0269999504089355 C36.06399917602539,-7.9019999504089355 37.492000579833984,-10.704999923706055 39.06999969482422,-13.425000190734863 C40.28200149536133,-15.475000381469727 36.27000045776367,-16.996999740600586 35.167999267578125,-15.10099983215332 C34.441001892089844,-13.866999626159668 33.75699996948242,-12.609999656677246 33.09600067138672,-11.331000328063965 C31.97800064086914,-13.541999816894531 29.485000610351562,-14.692999839782715 27.07699966430664,-14.109000205993652 C19.934999465942383,-13.182999610900879 14.732000350952148,-4.473999977111816 12.65999984741211,1.6319999694824219 C12.65999984741211,1.940999984741211 12.484000205993652,2.2709999084472656 12.373000144958496,2.6019999980926514 C11.345000267028809,5.6529998779296875 9.710000038146973,8.46399974822998 7.567999839782715,10.868000030517578 C5.560999870300293,13.071999549865723 0.3149999976158142,16.975000381469727 -2.617000102996826,14.020999908447266 C-2.9509999752044678,13.678999900817871 -3.2260000705718994,13.284000396728516 -3.433000087738037,12.852999687194824 C-2.242000102996826,11.574000358581543 -1.0959999561309814,10.229999542236328 -0.01600000075995922,8.885000228881836 C4.123000144958496,3.6589999198913574 7.576000213623047,-2.075000047683716 10.256999969482422,-8.178000450134277 C12.517999649047852,-12.541999816894531 13.868000030517578,-17.319000244140625 14.225000381469727,-22.22100067138672 C14.225000381469727,-25.57200050354004 12.020999908447266,-28.173999786376953 8.404999732971191,-27.0939998626709 C4.436999797821045,-25.881000518798828 1.659999966621399,-21.34000015258789 -0.3019999861717224,-17.98900032043457 C-3.203000068664551,-12.961000442504883 -5.427000045776367,-7.572000026702881 -6.915999889373779,-1.9620000123977661 C-8.38700008392334,2.4600000381469727 -8.758000373840332,7.175000190734863 -7.995999813079834,11.77299976348877 C-8.480999946594238,12.258000373840332 -9.010000228881836,12.720999717712402 -9.538999557495117,13.206000328063965 C-12.427000045776367,15.762999534606934 -17.211000442504883,19.599000930786133 -21.378000259399414,19.20199966430664 C-22.535999298095703,18.972000122070312 -23.475000381469727,18.125999450683594 -23.825000762939453,16.996999740600586 C-22.083999633789062,14.994999885559082 -20.486000061035156,12.873000144958496 -19.041000366210938,10.64799976348877 C-15.564000129699707,5.304999828338623 -12.800000190734863,-0.46700000762939453 -10.817999839782715,-6.525000095367432 C-9.538999557495117,-10.359999656677246 -7.9079999923706055,-15.343999862670898 -8.944000244140625,-19.399999618530273 C-9.979999542236328,-23.45599937438965 -13.947999954223633,-23.520999908447266 -16.770000457763672,-21.47100067138672 C-20.43000030517578,-18.826000213623047 -22.61199951171875,-14.086999893188477 -24.288000106811523,-10.053000450134277 C-26.562000274658203,-4.689000129699707 -28.04800033569336,0.9779999852180481 -28.69700050354004,6.769000053405762 C-29.16200065612793,9.847000122070312 -29.065000534057617,12.984000205993652 -28.40999984741211,16.027000427246094 C-31.31999969482422,19.091999053955078 -35.24399948120117,22.39900016784668 -39.43199920654297,22.795000076293945 C-45.42900085449219,23.34600067138672 -38.198001861572266,5.88700008392334 -37.07400131225586,3.3959999084472656 C-36.76499938964844,2.6679999828338623 -36.433998107910156,1.9630000591278076 -36.104000091552734,1.190999984741211 C-35.04600143432617,-1.0130000114440918 -39.0359992980957,-2.4690001010894775 -39.98400115966797,-0.5070000290870667 C-41.5880012512207,2.7869999408721924 -42.95800018310547,6.190000057220459 -44.08399963378906,9.678000450134277 C-45.40700149536133,13.645999908447266 -47.457000732421875,19.731000900268555 -44.922000885009766,23.632999420166016 C-41.96799850463867,28.173999786376953 -35.28799819946289,25.83799934387207 -31.583999633789062,23.632999420166016 C-29.73200035095215,22.545000076293945 -28.009000778198242,21.250999450683594 -26.447999954223633,19.774999618530273 C-23.295000076293945,23.566999435424805 -18.114999771118164,22.55299949645996 -14.125,20.83300018310547 C-11.222000122070312,19.527999877929688 -8.543999671936035,17.77199935913086 -6.189000129699707,15.630999565124512 C-4.151000022888184,17.858999252319336 -1.1150000095367432,18.891000747680664 1.8580000400543213,18.36400032043457 C6.151000022888184,17.650999069213867 9.95300006866455,15.182000160217285 12.35099983215332,11.550999641418457 C13.22700023651123,14.223999977111816 16.01300048828125,15.772000312805176 18.743999481201172,15.10200023651123 C22.652999877929688,14.303999900817871 26.07699966430664,11.968999862670898 28.246000289916992,8.619999885559082 C30.076000213623047,12.324000358581543 35.27799987792969,12.522000312805176 38.82699966430664,10.824999809265137 C42.23500061035156,8.984000205993652 44.992000579833984,6.135000228881836 46.720001220703125,2.6679999828338623 C46.720001220703125,2.6679999828338623 46.902000427246094,2.4059998989105225 46.902000427246094,2.4059998989105225 C46.97700119018555,2.2660000324249268 47.042999267578125,2.1579999923706055 47.11000061035156,2.0460000038146973 C47.047000885009766,1.934999942779541 46.98699951171875,1.8220000267028809 46.946998596191406,1.6990000009536743 C46.790000915527344,1.4010000228881836 46.71900177001953,1.0809999704360962 46.731998443603516,0.7369999885559082 C46.731998443603516,0.7369999885559082 46.731998443603516,0.6650000214576721 46.731998443603516,0.6650000214576721 C46.733001708984375,0.21400000154972076 46.84700012207031,-0.20600000023841858 47.073001861572266,-0.5960000157356262 C47.09299850463867,-0.621999979019165 47.112998962402344,-0.6480000019073486 47.132999420166016,-0.6740000247955322 C47.141998291015625,-0.7070000171661377 47.141998291015625,-0.7440000176429749 47.152000427246094,-0.7770000100135803 C47.198001861572266,-1.1230000257492065 47.284000396728516,-1.4609999656677246 47.457000732421875,-1.7599999904632568 C47.41999816894531,-1.8250000476837158 47.37799835205078,-1.8860000371932983 47.34600067138672,-1.9520000219345093z M-23.250999450683594,-0.24199999868869781 C-21.993999481201172,-5.202000141143799 -20.09000015258789,-9.97599983215332 -17.586000442504883,-14.439000129699707 C-16.690000534057617,-16.06399917602539 -15.560999870300293,-17.549999237060547 -14.234999656677246,-18.847999572753906 C-13.95300006866455,-19.18000030517578 -13.545999526977539,-19.381000518798828 -13.111000061035156,-19.399999618530273 C-12.802000045776367,-19.399999618530273 -12.758000373840332,-18.38599967956543 -12.736000061035156,-17.68000030517578 C-12.78499984741211,-15.79800033569336 -13.043999671936035,-13.928000450134277 -13.506999969482422,-12.102999687194824 C-14.744999885559082,-6.757999897003174 -16.610000610351562,-1.5789999961853027 -19.062999725341797,3.3289999961853027 C-20.854000091552734,7.080999851226807 -22.96299934387207,10.673999786376953 -25.368000030517578,14.065999984741211 C-25.36400032043457,9.218999862670898 -24.650999069213867,4.39900016784668 -23.250999450683594,-0.24199999868869781z M-4.534999847412109,6.150000095367432 C-3.6740000247955322,0.9169999957084656 -2.1559998989105225,-4.184999942779541 -0.01600000075995922,-9.038000106811523 C-0.01600000075995922,-9.038000106811523 -0.01600000075995922,-9.060999870300293 -0.01600000075995922,-9.060999870300293 C1.7079999446868896,-13.557999610900879 4.085000038146973,-17.777000427246094 7.039000034332275,-21.58099937438965 C7.688000202178955,-22.36400032043457 8.428000450134277,-23.066999435424805 9.243000030517578,-23.676000595092773 C9.508000373840332,-23.874000549316406 9.881999969482422,-23.983999252319336 10.015000343322754,-23.874000549316406 C10.147000312805176,-23.763999938964844 10.190999984741211,-23.41200065612793 10.190999984741211,-22.993000030517578 C10.190999984741211,-14.35200023651123 5.053999900817871,-5.245999813079834 0.8220000267028809,1.7860000133514404 C-0.9200000166893005,4.693999767303467 -2.8499999046325684,7.485000133514404 -4.953999996185303,10.140999794006348 C-4.953999996185303,8.685999870300293 -4.689000129699707,7.296999931335449 -4.534999847412109,6.150000095367432z M29.281999588012695,-2.7990000247955322 C28.972999572753906,-1.8289999961853027 28.621000289916992,-0.859000027179718 28.26799964904785,0.13300000131130219 C26.743000030517578,4.754000186920166 23.573999404907227,8.652999877929688 19.36199951171875,11.08899974822998 C19.36199951171875,11.08899974822998 19.36199951171875,11.065999984741211 19.36199951171875,11.065999984741211 C14.644000053405762,13.425000190734863 15.569999694824219,6.6570000648498535 16.606000900268555,3.438999891281128 C16.804000854492188,2.822000026702881 17.024999618530273,2.2260000705718994 17.201000213623047,1.6089999675750732 C18.777999877929688,-3.1449999809265137 21.94700050354004,-7.209000110626221 26.173999786376953,-9.89799976348877 C30.957000732421875,-12.520999908447266 30.36199951171875,-6.193999767303467 29.281999588012695,-2.7990000247955322z"></path></g><g opacity="1" transform="matrix(1,0,0,1,24.125,46.6879997253418)"><path fill="rgb(24,47,88)" fill-opacity="1" d=" M22.22100067138672,-42.35900115966797 C23.874000549316406,-44.387001037597656 20.215999603271484,-46.4370002746582 18.89299964904785,-44.762001037597656 C8.840999603271484,-32.880001068115234 2.9549999237060547,-17.933000564575195 -1.5870000123977661,-3.1410000324249268 C-5.321000099182129,9.138999938964844 -8.208999633789062,21.660999298095703 -10.229000091552734,34.33599853515625 C-11.442000389099121,29.77199935913086 -12.543000221252441,25.165000915527344 -13.579000473022461,20.558000564575195 C-17.277000427246094,5.2210001945495605 -19.30299949645996,-10.472000122070312 -19.6200008392334,-26.2450008392334 C-19.6200008392334,-28.450000762939453 -23.874000549316406,-28.559999465942383 -23.874000549316406,-26.2450008392334 C-23.547000885009766,-10.192999839782715 -21.464000701904297,5.775000095367432 -17.659000396728516,21.371999740600586 C-15.873000144958496,29.197999954223633 -13.91100025177002,37.02399826049805 -11.46399974822998,44.67399978637695 C-10.956999778747559,46.23899841308594 -7.584000110626221,46.4370002746582 -7.36299991607666,44.67399978637695 C-6.547999858856201,37.44300079345703 -5.158999919891357,30.235000610351562 -3.7920000553131104,23.093000411987305 C-0.9860000014305115,8.196999549865723 3.367000102996826,-6.366000175476074 9.192999839782715,-20.358999252319336 C12.449000358581543,-28.284000396728516 16.836000442504883,-35.694000244140625 22.22100067138672,-42.35900115966797z"></path></g><g opacity="1" transform="matrix(1,0,0,1,44.935001373291016,27.784000396728516)"><path fill="rgb(24,47,88)" fill-opacity="1" d=" M-3.2190001010894775,0 C-3.2190001010894775,1.777999997138977 -1.7769999504089355,3.2190001010894775 0.0010000000474974513,3.2190001010894775 C1.777999997138977,3.2190001010894775 3.2190001010894775,1.777999997138977 3.2190001010894775,0 C3.2190001010894775,-1.777999997138977 1.777999997138977,-3.2190001010894775 0.0010000000474974513,-3.2190001010894775 C-1.7769999504089355,-3.2190001010894775 -3.2190001010894775,-1.777999997138977 -3.2190001010894775,0z"></path></g><g opacity="1" transform="matrix(1,0,0,1,126.00399780273438,36.564998626708984)"><path fill="rgb(25,49,90)" fill-opacity="1" d=" M-3.3489999771118164,2.2209999561309814 C-3.3489999771118164,2.2209999561309814 -0.9300000071525574,-3.382999897003174 -0.9300000071525574,-3.382999897003174 C0.3310000002384186,-6.077000141143799 4.295000076293945,-4.190999984741211 2.996999979019165,-1.5119999647140503 C2.996999979019165,-1.5119999647140503 0.17000000178813934,3.8980000019073486 0.17000000178813934,3.8980000019073486 C-1.0069999694824219,6.077000141143799 -4.295000076293945,4.499000072479248 -3.3489999771118164,2.2209999561309814z"></path></g></g></g></svg>